PathFileType	4	(X/Y/Z)	F:\biomechanics\vid_Sports2D\vid_Sports2D_m_person00.trc
DataRate	CameraRate	NumFrames	NumMarkers	Units	OrigDataRate	OrigDataStartFrame	OrigNumFrames
250.0	250.0	9	22	m	250.0	480	769
Frame#	Time	Hip			RHip			RKnee			RAnkle			RBigToe			RSmallToe			RHeel			LHip			LKnee			LAnkle			LBigToe			LSmallToe			LHeel			Neck			Head			Nose			RShoulder			RElbow			RWrist			LShoulder			LElbow			LWrist			
		X1	Y1	Z1	X2	Y2	Z2	X3	Y3	Z3	X4	Y4	Z4	X5	Y5	Z5	X6	Y6	Z6	X7	Y7	Z7	X8	Y8	Z8	X9	Y9	Z9	X10	Y10	Z10	X11	Y11	Z11	X12	Y12	Z12	X13	Y13	Z13	X14	Y14	Z14	X15	Y15	Z15	X16	Y16	Z16	X17	Y17	Z17	X18	Y18	Z18	X19	Y19	Z19	X20	Y20	Z20	X21	Y21	Z21	X22	Y22	Z22
519	2.07857249070632	1.7026192429221583	1.176620212072013	0.0	1.7273616028942442	1.1746294445174892	0.105	1.7911328042620756	0.7281240160743312	0.0886	1.6259616625288928	0.3253095886500615	0.0972	1.678585885454611	0.1543781258494834	0.0766	1.651483347541919	0.16037250346264176	0.12	1.5503934150016763	0.31247102535069604	0.0883	1.6830291060106373	1.1813938612168429	-0.105	1.7304101817937712	0.7365000643656321	-0.0886	1.5973051811360413	0.35257950900527424	-0.0972	1.7181497955722127	0.223535930949785	-0.0766	1.698332648515229	0.2494501987510251	-0.12	1.5031680494259496	0.34303354117387613	-0.0883	1.6465828090420114	1.7228606111115474	0.0	1.549250198644994	1.9612325168224516	0.0	1.6854923914325906	1.8784495163085848	0.0	1.7174862125546488	1.6536506923099912	0.2016	1.9553507621086896	1.8602666730950135	0.1613	1.8854413042146598	2.068284366352283	0.12	1.630750348833451	1.6855710803858421	-0.2016	1.8433684069600533	1.8395320896239251	-0.1613	1.8230365898534233	2.061810761174345	-0.12
520	2.082577447335812	1.704425524286751	1.178148374039152	0.0	1.7285783345859138	1.1759762680788721	0.105	1.7919212360268113	0.7290802981939479	0.0886	1.6275480113016232	0.32611099411925604	0.0972	1.6813781725492978	0.1545016684244609	0.0766	1.6537875360702745	0.16075225106468133	0.12	1.551851087050351	0.31275536408089344	0.0883	1.6849732027074056	1.1828379652055707	-0.105	1.7315577132779276	0.737523955225073	-0.0886	1.5982008451935985	0.3534150818396776	-0.0972	1.720166226264983	0.2240252260512208	-0.0766	1.6998549501387217	0.2506165880661375	-0.12	1.5038548994107883	0.34337326083998615	-0.0883	1.6474928711256756	1.7243752673802002	0.0	1.5490279437104333	1.9621261721881578	0.0	1.6853318142117395	1.8804028953829957	0.0	1.7180152541472873	1.654602654020853	0.2016	1.9554426449055557	1.8633041267412167	0.1613	1.8873567309535306	2.074458952829651	0.12	1.6324615483798464	1.6876010011192137	-0.2016	1.8448283063783921	1.8439450453159483	-0.1613	1.825487351879075	2.068584018521992	-0.12
521	2.086582403965304	1.706132172620234	1.1796088998794925	0.0	1.7297711664114448	1.177279256864317	0.105	1.7926883217201823	0.7299894690656027	0.0886	1.6291215839828264	0.3268294729681067	0.0972	1.6842557410775827	0.15464294735897086	0.0766	1.656176508724006	0.16111753700290898	0.12	1.5533204526238884	0.312920934908238	0.0883	1.6867518329682516	1.1842449656135552	-0.105	1.7325497291714036	0.7385193253213328	-0.0886	1.5990887703637668	0.3542422049267391	-0.0972	1.722287110973065	0.2246830543593133	-0.0766	1.701485401386538	0.2518478376836416	-0.12	1.50457635947686	0.34359364149089866	-0.0883	1.6484344858847653	1.7258260138310482	0.0	1.5488398463067121	1.9629483229908504	0.0	1.685162275030259	1.8822710450466964	0.0	1.7186127773059912	1.6554599802537273	0.2016	1.9554785148343967	1.8663268419250973	0.1613	1.889381128403488	2.080589696286294	0.12	1.6340802417527	1.6896419571263017	-0.2016	1.8460494626155275	1.8484060200880108	-0.1613	1.827877021225995	2.0753978322733118	-0.12
522	2.090587360594796	1.7077314362820468	1.1809973437587433	0.0	1.7309348384147376	1.1785330246328318	0.105	1.793435933032223	0.7308515938282554	0.0886	1.6306759437539633	0.3274682483545208	0.0972	1.687199603037088	0.15480279490554374	0.0766	1.658637652392134	0.16146892090791523	0.12	1.554799347898727	0.31297505064830705	0.0883	1.6883624109001294	1.1856115044031923	-0.105	1.7333965742049304	0.7394824351182968	-0.0886	1.5999722933187237	0.3550595142644463	-0.0972	1.7244895317654352	0.22550449140547008	-0.0766	1.7032117357162697	0.25313575656769516	-0.12	1.5053378691634185	0.34370231938302237	-0.0883	1.6494050318315099	1.727208297245157	0.0	1.5486829097558596	1.9637038506134987	0.0	1.6849854989088142	1.8840521970741155	0.0	1.7192817605995103	1.6562255532311791	0.2016	1.955450014681706	1.869331126690299	0.1613	1.8915224143226974	2.0866562890640648	0.12	1.6356058730656804	1.691694292381839	-0.2016	1.8470283596362878	1.8529201305937488	-0.1613	1.8302154978286567	2.082240648739491	-0.12
523	2.0945923172242877	1.7092152539637113	1.1823098137342114	0.0	1.7320627725884103	1.1797336408244374	0.105	1.7941666293503538	0.7316673642289432	0.0886	1.632205159561122	0.3280318943115745	0.0972	1.6901921402048328	0.15498148160896785	0.0766	1.6611589419515065	0.16180790341926826	0.12	1.5562852393333115	0.3129258572495921	0.0883	1.6898045649481477	1.18693503952939	-0.105	1.734110134271354	0.7404100332853203	-0.0886	1.6008547860317182	0.35586471034529	-0.0972	1.726754182363195	0.22648291207405027	-0.0766	1.7050211428643414	0.25447201188193136	-0.12	1.5061455618977189	0.34370773100129737	-0.0883	1.650400749868344	1.7285155062224369	0.0	1.5485540467334282	1.9643982518795293	0.0	1.684803863871055	1.8857448152227672	0.0	1.7200239008586222	1.6569039545470103	0.2016	1.9553495624332027	1.87231309142652	0.1613	1.8937876152963309	2.09263746899958	0.12	1.6370363687966976	1.6937564834294652	-0.2016	1.847760805552381	1.857488030845123	-0.1613	1.8325146238071255	2.089093875013359	-0.12
524	2.09859727385378	1.7105761310635301	1.1835436194235969	0.0	1.733148171945579	1.1808795038538085	0.105	1.7948831791497704	0.7324389682851886	0.0886	1.6337050108221867	0.3285267123099208	0.0972	1.6932174481804914	0.15518062250336045	0.0766	1.6637297008613159	0.16213827921328372	0.12	1.5577766020879862	0.31278294769497966	0.0883	1.6910801019152049	1.1882141208920913	-0.105	1.7347032221835001	0.7412994918322625	-0.0886	1.6017401066285408	0.356655024774186	-0.0972	1.729062619100873	0.22761002536438618	-0.0766	1.706900762232364	0.2558487829458565	-0.12	1.5070048979328734	0.34361742957481334	-0.0883	1.6514168425441595	1.7297407957927937	0.0	1.5484500935164929	1.9650376792773299	0.0	1.6846206649024897	1.887348976926246	0.0	1.7208392403427342	1.657501165143945	0.2016	1.95517053767389	1.8752681497448997	0.1613	1.8961823630942867	2.098512185724372	0.12	1.638369592138728	1.6958250379549102	-0.2016	1.8482433912571699	1.8621065436231046	-0.1613	1.8347881543936049	2.0959339322718495	-0.12
525	2.1026022304832717	1.711808225248544	1.1846973512254864	0.0	1.7341854979353586	1.181970435903172	0.105	1.7955882137113661	0.7331696771702154	0.0886	1.6351736058716835	0.32895962942189716	0.0972	1.6962606782731608	0.15540271046843127	0.0766	1.6663398531902252	0.16246389745817674	0.12	1.5592729546933788	0.3125570158527718	0.0883	1.692193600682582	1.1894478961156876	-0.105	1.735189008664709	0.7421490724157288	-0.0886	1.6026326822159926	0.35742726942672426	-0.0972	1.731397109292856	0.22887592962524705	-0.0766	1.7088381878649428	0.25725932193405093	-0.12	1.5079205472078865	0.3434378897745962	-0.0883	1.6524480891972892	1.7308791074478875	0.0	1.548367843117312	1.9656287471927425	0.0	1.6844402160277259	1.888866570760099	0.0	1.7217259943492778	1.6580240435271598	0.2016	1.9549073505871153	1.878190870420593	0.1613	1.8987101882073136	2.1042606518193523	0.12	1.6396050195922365	1.6978957486245638	-0.2016	1.8484751821894794	1.8667696859354326	-0.1613	1.8370515631266664	2.102733295314622	-0.12
526	2.1066071871127634	1.7129080485178245	1.185770642944263	0.0	1.7351712486749515	1.1830063492204665	0.105	1.7962841116708939	0.7338627279936233	0.0886	1.6366111467786628	0.3293365058512391	0.0972	1.699307905994831	0.1556489919770322	0.0766	1.6689796821139544	0.16278564556644756	0.12	1.5607740507089858	0.3122592858180926	0.0883	1.69315279435203	1.1906352901111932	-0.105	1.735580259236484	0.7429579196739591	-0.0886	1.6035369787030465	0.35817759035382535	-0.0972	1.7337425721759394	0.23026928449296907	-0.0766	1.7108218857519024	0.258697924577836	-0.12	1.5088969700035448	0.3431754356707631	-0.0883	1.6534900300186246	1.731928182831532	0.0	1.5483040122181002	1.9661779321954087	0.0	1.684267732327105	1.8903003134849723	0.0	1.7226806740082323	1.6584801672282592	0.2016	1.9545553685074135	1.8810749834928249	0.1613	1.9013720209063982	2.10986479127387	0.12	1.6407447370789732	1.6999646481396373	-0.2016	1.8484597128226243	1.871469059181571	-0.1613	1.8393217114215163	2.1094615468457376	-0.12
527	2.1106121437422556	1.7138747372389458	1.1867640774395907	0.0	1.7361039579949655	1.1839870110530764	0.105	1.7969730623677447	0.7345209588109395	0.0886	1.6380193658298197	0.32966171921338067	0.0972	1.7023473752794978	0.15591868926562097	0.0766	1.6716412144798136	0.1631010490729014	0.12	1.5622803104896439	0.3119014674366318	0.0883	1.693968467690794	1.1917749053594668	-0.105	1.7358887230682147	0.7437258005989934	-0.0886	1.6044567912488743	0.3589015483415752	-0.0972	1.736087738748503	0.23177785320899744	-0.0766	1.7128412558162398	0.2601601985191465	-0.12	1.509938386208901	0.3428365830835595	-0.0883	1.6545396166165927	1.7328883419962202	0.0	1.5482549856461583	1.9666910898323384	0.0	1.684109091087988	1.8916534295748841	0.0	1.7236981149606048	1.6588777859649206	0.2016	1.9541107674370732	1.883912818913139	0.1613	1.904166453816919	2.11530743370223	0.12	1.6417936390583783	1.7020274408699525	-0.2016	1.8482066033770603	1.8761934101067188	-0.1613	1.8416166468682882	2.116086422951677	-0.12
